<svg width="105" height="100" viewBox="0 0 105 100" fill="none" xmlns="http://www.w3.org/2000/svg">
<path d="M0.5 99.5V53H49.5V99.5H0.5Z" fill="black"/>
<path d="M56 21.5V0.5H104.5V21.5H56Z" fill="black"/>
<path d="M56 99.5V53.5H78.5V99.5H56Z" fill="black"/>
<path d="M56 46.5V29H78.5V46.5H56Z" fill="black"/>
<path d="M85.5 71V29H104.5V71H85.5Z" fill="black"/>
<path d="M85.5 99.5V78.5H104.5V99.5H85.5Z" fill="black"/>
<path fill-rule="evenodd" clip-rule="evenodd" d="M0.5 0.5V46.5H49.5V0.5H0.5ZM13 34.5V12H36.5V34.5H13Z" fill="black"/>
<path d="M0.5 99.5V53H49.5V99.5H0.5Z" stroke="black"/>
<path d="M56 21.5V0.5H104.5V21.5H56Z" stroke="black"/>
<path d="M56 99.5V53.5H78.5V99.5H56Z" stroke="black"/>
<path d="M56 46.5V29H78.5V46.5H56Z" stroke="black"/>
<path d="M85.5 71V29H104.5V71H85.5Z" stroke="black"/>
<path d="M85.5 99.5V78.5H104.5V99.5H85.5Z" stroke="black"/>
<path fill-rule="evenodd" clip-rule="evenodd" d="M0.5 0.5V46.5H49.5V0.5H0.5ZM13 34.5V12H36.5V34.5H13Z" stroke="black"/>
</svg>
