<svg version="1.1" id="Layer_1" xmlns="http://www.w3.org/2000/svg" xmlns:xlink="http://www.w3.org/1999/xlink" x="0px" y="0px"
	 width="100%" viewBox="0 0 3178 821" enable-background="new 0 0 3178 821" xml:space="preserve">
<path fill="#000000" opacity="0" stroke="none" 
	d="
M696.000000,1.000000 
	C1523.622192,1.000000 2351.244385,1.000000 3178.933350,1.000000 
	C3178.933350,274.607574 3178.933350,548.215149 3178.933350,821.911377 
	C2119.782471,821.911377 1060.565186,821.911377 1.173861,821.911377 
	C1.173861,548.333435 1.173861,274.666718 1.173861,1.000000 
	C51.438202,1.000000 101.768196,1.000000 152.873657,1.354705 
	C152.126770,5.810355 148.547943,3.202163 146.038284,4.061330 
	C140.435959,5.979241 134.904785,8.107936 129.285095,9.971237 
	C122.755463,12.136243 115.915352,13.551429 109.663765,16.317579 
	C102.993118,19.269152 96.958969,23.623661 90.456551,26.998903 
	C79.292175,32.794048 69.818954,40.828213 60.576473,49.146843 
	C55.545055,53.675331 50.488682,58.321743 46.284042,63.586239 
	C41.050556,70.138939 36.504139,77.270233 32.007385,84.371010 
	C29.015944,89.094765 26.409056,94.098206 24.028990,99.163895 
	C20.985220,105.642212 18.261364,112.275856 15.554767,118.905884 
	C13.573221,123.759834 11.594510,128.641174 10.081168,133.651245 
	C8.979900,137.297119 8.728582,141.191605 7.940951,144.942200 
	C6.696379,150.868683 4.170588,156.766449 4.165236,162.678146 
	C3.968240,380.297852 3.999241,597.917786 4.009504,815.537659 
	C4.009572,816.972656 4.154644,818.407593 4.228790,819.782959 
	C8.232435,819.782959 11.940358,820.253784 15.482549,819.687683 
	C23.573046,818.394592 31.627962,816.788818 39.607029,814.923767 
	C44.102524,813.872803 48.704105,812.599792 52.760235,810.476257 
	C63.465607,804.871582 74.278107,799.318604 84.321869,792.651306 
	C92.429909,787.268860 99.959373,780.774597 106.873039,773.896545 
	C114.759254,766.051086 122.240578,757.650024 128.857285,748.719482 
	C135.251129,740.089783 140.665802,730.667969 145.837341,721.225403 
	C148.727890,715.947632 149.426193,709.404114 152.589249,704.356506 
	C156.881516,697.506958 157.592255,689.787048 159.917313,682.480347 
	C161.069885,678.858276 161.287674,674.946411 162.046127,671.189453 
	C163.314789,664.905273 165.828751,658.641052 165.834503,652.366638 
	C166.033951,435.244568 166.000351,218.122269 166.000000,1.000000 
	C279.366058,1.000000 392.732147,1.000000 506.873077,1.352824 
	C506.774597,2.469725 505.866791,3.928652 505.033386,3.887337 
	C498.695160,3.573124 494.740753,7.668718 490.894623,11.567928 
	C486.648376,15.872779 482.936096,20.701464 478.938080,25.255314 
	C477.115814,27.330950 475.037933,29.190279 473.297089,31.327782 
	C467.137115,38.891350 461.129150,46.578918 454.952820,54.128860 
	C450.541046,59.521782 445.745117,64.609886 441.490662,70.119759 
	C435.197723,78.269554 429.396698,86.799904 423.080902,94.931076 
	C417.239014,102.452118 410.972321,109.642258 404.934875,117.012642 
	C397.051392,126.636620 389.218567,136.302078 381.346649,145.935532 
	C375.341370,153.284607 369.352448,160.647751 363.277985,167.939438 
	C355.778259,176.941956 348.052612,185.760437 340.711029,194.888809 
	C336.880554,199.651505 333.962708,205.150803 330.108795,209.891525 
	C322.113861,219.726151 313.666626,229.191757 305.596252,238.966675 
	C296.837128,249.575836 288.259644,260.335907 279.670593,271.084229 
	C273.983734,278.200745 268.655151,285.617126 262.736633,292.531616 
	C254.582260,302.058105 246.353653,311.432251 239.091202,321.752258 
	C233.901672,329.126617 227.732895,335.790802 223.384476,343.856903 
	C219.961563,350.206177 215.668304,356.080444 212.063599,362.339600 
	C209.837555,366.204865 208.080551,370.353668 206.288269,374.451843 
	C204.099442,379.456787 201.814453,384.448120 200.079132,389.615906 
	C197.801727,396.397949 195.693069,403.272308 194.113358,410.243317 
	C192.384476,417.872620 190.736755,425.610199 190.130310,433.384552 
	C189.006561,447.790802 189.011780,462.305328 188.511749,476.717865 
	C187.062149,518.500305 187.998505,560.365540 187.998932,602.198242 
	C187.998947,603.198181 187.662918,604.380493 188.079758,605.158142 
	C188.825638,606.549805 189.823593,608.061707 191.126175,608.786804 
	C191.734253,609.125305 193.568863,607.991577 194.387634,607.101868 
	C199.685760,601.344910 204.870193,595.482788 210.066483,589.632629 
	C215.999527,582.952881 222.029968,576.354248 227.795090,569.531982 
	C236.293549,559.475281 244.555923,549.219421 253.012329,539.126709 
	C254.734970,537.070679 257.081848,535.533752 258.779205,533.461243 
	C265.033020,525.825073 271.103027,518.038513 277.328400,510.378601 
	C278.263092,509.228516 279.867462,508.623474 280.805450,507.475098 
	C286.148376,500.933594 291.247864,494.189484 296.694061,487.737091 
	C301.826111,481.656799 307.495697,476.025940 312.552368,469.887299 
	C320.937897,459.707458 328.963287,449.231934 337.250153,438.969574 
	C344.272034,430.273804 351.396973,421.659698 358.573669,413.090973 
	C364.730347,405.740112 371.064911,398.538483 377.247101,391.208679 
	C383.568329,383.714081 389.837341,376.174622 396.062195,368.599731 
	C405.728363,356.837311 415.333588,345.024811 424.972687,333.240082 
	C431.312317,325.489227 437.570221,317.668518 444.049652,310.036072 
	C447.874847,305.530182 452.155731,301.413910 456.060394,296.971893 
	C460.917847,291.446014 465.663605,285.818298 470.340881,280.138489 
	C477.860504,271.007050 485.251892,261.770081 492.760742,252.629684 
	C497.524567,246.830704 502.509216,241.211044 507.202911,235.357086 
	C512.928101,228.216675 518.296387,220.786697 524.114441,213.725327 
	C528.390686,208.535202 533.305481,203.874512 537.647034,198.734085 
	C546.542664,188.201508 555.226013,177.489899 564.048035,166.894638 
	C565.192383,165.520264 566.808655,164.532257 567.917053,163.135727 
	C572.424438,157.456940 576.694641,151.586716 581.289734,145.981689 
	C586.053101,140.171402 591.220276,134.692017 595.979309,128.878342 
	C603.532227,119.651588 610.914795,110.284714 618.327637,100.944008 
	C624.029724,93.758881 629.453918,86.341362 635.385803,79.353218 
	C643.648376,69.619438 652.412720,60.311886 660.687622,50.588192 
	C666.370972,43.909832 671.467041,36.734825 677.053223,29.969763 
	C681.095215,25.074791 685.969360,20.813349 689.618225,15.664095 
	C692.673889,11.352043 697.623108,7.486638 696.000000,1.000000 
M327.637177,485.045288 
	C323.622223,489.713715 319.524200,494.313934 315.616547,499.070496 
	C311.994995,503.478699 308.317719,507.879547 305.137329,512.601746 
	C301.492798,518.013184 296.564117,523.454224 295.494812,529.469238 
	C294.275574,536.327759 296.248077,543.924744 297.686829,551.027954 
	C298.748016,556.267212 301.181366,561.228027 302.997681,566.314941 
	C304.491608,570.498962 305.228210,575.186829 307.622711,578.767090 
	C312.575989,586.173096 314.795593,594.934265 320.722504,601.960876 
	C325.931000,608.135864 328.710815,616.309265 333.637726,622.782288 
	C343.835693,636.180542 354.705078,649.070251 365.382477,662.100098 
	C371.985382,670.157776 378.766846,678.068909 385.420471,686.085388 
	C388.319672,689.578491 391.180511,693.109619 393.916595,696.730835 
	C400.245514,705.107178 406.407928,713.610229 412.792786,721.943176 
	C417.145142,727.623474 421.808990,733.063965 426.243774,738.682556 
	C431.890717,745.836914 437.370789,753.123901 443.068481,760.237000 
	C447.014526,765.163208 451.289948,769.824585 455.271118,774.723816 
	C462.892914,784.103027 470.387207,793.585876 477.982422,802.986877 
	C480.814789,806.492615 484.897827,809.458130 486.435516,813.433838 
	C488.990509,820.040039 493.834869,819.996826 499.173492,819.997070 
	C562.660522,820.000305 626.147583,819.999023 689.634644,819.999023 
	C691.399353,819.999023 693.164062,819.999084 695.641785,819.999084 
	C694.928345,817.850220 694.809998,816.146606 693.929932,815.059937 
	C687.894653,807.607788 681.677856,800.303162 675.566040,792.912415 
	C672.675415,789.416931 669.842285,785.871460 667.062195,782.287354 
	C661.002197,774.474426 655.144714,766.498657 648.910400,758.828552 
	C644.626526,753.558105 639.618469,748.875854 635.340698,743.601013 
	C627.448364,733.868896 619.791077,723.943604 612.156433,714.006042 
	C605.686279,705.584167 599.518005,696.928528 592.976990,688.563354 
	C585.206665,678.625916 577.187805,668.882690 569.263367,659.065979 
	C560.837280,648.627869 552.427124,638.176758 543.952698,627.778076 
	C534.420166,616.080933 524.776367,604.474365 515.269897,592.756226 
	C507.768372,583.509399 500.474579,574.093750 492.943878,564.871216 
	C489.244629,560.340881 484.961090,556.276062 481.394623,551.651428 
	C475.007141,543.368835 469.220764,534.615845 462.703033,526.442383 
	C455.763855,517.740356 448.122894,509.601624 441.048553,501.002899 
	C430.140930,487.744934 419.458374,474.301849 408.672485,460.943604 
	C405.822113,457.413452 402.864960,453.966675 400.094482,450.375427 
	C395.198883,444.029480 390.423584,437.590912 385.566101,431.215363 
	C384.097595,429.287964 382.524078,427.440582 380.121429,424.473083 
	C378.569214,425.324005 375.745514,426.069824 374.138031,427.889832 
	C366.570648,436.457336 359.151917,445.172394 352.033051,454.115662 
	C343.977783,464.235321 336.298370,474.654144 327.637177,485.045288 
M1977.459229,552.998169 
	C1980.232178,552.998169 1983.005127,552.998169 1985.739502,552.998169 
	C1985.739502,449.074341 1985.739502,345.686066 1985.739502,242.249176 
	C1965.742554,242.249176 1946.006714,242.249176 1925.876221,242.249176 
	C1925.876221,311.140259 1925.876221,379.783539 1925.876221,449.938904 
	C1921.210449,443.153442 1917.506592,437.480804 1913.512939,432.019989 
	C1905.803711,421.479004 1897.955444,411.039124 1890.116699,400.593536 
	C1885.467529,394.398163 1880.737427,388.263306 1876.021729,382.118195 
	C1873.185791,378.422638 1870.286011,374.776001 1867.453857,371.077667 
	C1863.950562,366.502991 1860.516602,361.875122 1857.000122,357.310760 
	C1852.575928,351.568268 1848.104126,345.862488 1843.642334,340.148926 
	C1839.790039,335.215820 1835.810791,330.377197 1832.088745,325.347992 
	C1826.381348,317.636597 1820.944092,309.724762 1815.204468,302.038086 
	C1811.308716,296.820404 1806.955811,291.944244 1803.054688,286.730316 
	C1798.753906,280.982330 1794.853760,274.934998 1790.561401,269.180420 
	C1786.517456,263.759094 1782.037598,258.661743 1778.023926,253.219406 
	C1772.193115,245.313248 1765.838257,239.208771 1754.757935,239.846359 
	C1742.800171,240.534454 1730.772095,239.993759 1718.774780,240.015289 
	C1717.523438,240.017532 1716.272339,240.197098 1715.327393,240.270584 
	C1715.327393,344.777557 1715.327393,448.835663 1715.327393,552.680664 
	C1734.734253,552.680664 1753.806396,552.680664 1773.451904,552.680664 
	C1773.451904,482.583435 1773.451904,412.814575 1773.451904,341.794525 
	C1777.714844,347.572632 1781.090820,352.333282 1784.663574,356.941406 
	C1788.674194,362.114624 1792.991455,367.052307 1796.946533,372.266022 
	C1804.667603,382.444122 1812.187012,392.774994 1819.871948,402.980865 
	C1825.168213,410.014526 1830.703003,416.869812 1835.947266,423.941223 
	C1841.513794,431.447449 1846.789062,439.169373 1852.331055,446.694397 
	C1856.716797,452.649323 1861.316772,458.446320 1865.815552,464.318085 
	C1874.578979,475.755646 1883.298096,487.227631 1892.125854,498.615295 
	C1894.505127,501.684692 1897.375854,504.375092 1899.729614,507.461792 
	C1904.401733,513.588562 1908.901123,519.848328 1913.414917,526.094177 
	C1917.428833,531.648193 1921.270020,537.329224 1925.362427,542.823853 
	C1929.977539,549.020203 1934.673096,554.171997 1943.999023,553.246704 
	C1954.724365,552.182556 1965.636353,552.998718 1977.459229,552.998169 
M1126.648193,426.982117 
	C1127.927856,428.377075 1129.302979,429.696716 1130.470825,431.179688 
	C1136.234619,438.498230 1142.092407,445.749634 1147.635254,453.233429 
	C1155.354370,463.655518 1162.703125,474.352264 1170.445801,484.756287 
	C1174.799805,490.606842 1179.708862,496.040802 1184.220459,501.778320 
	C1190.030029,509.166351 1195.764648,516.616028 1201.395508,524.141052 
	C1206.382202,530.805176 1210.706665,538.038086 1216.250000,544.184326 
	C1219.408691,547.686646 1221.761719,553.040466 1227.945801,553.022095 
	C1248.776733,552.960205 1269.608154,553.007446 1290.439331,552.980469 
	C1291.824585,552.978638 1293.209473,552.705078 1294.745972,552.541809 
	C1292.456787,548.696533 1290.771484,545.183777 1288.472778,542.133179 
	C1281.773926,533.243042 1274.848022,524.523438 1267.975830,515.764526 
	C1262.581787,508.889313 1257.173096,502.024750 1251.694458,495.216888 
	C1249.298828,492.239960 1246.509644,489.564545 1244.263550,486.486298 
	C1241.323608,482.457153 1238.895996,478.054749 1235.969116,474.015045 
	C1232.732178,469.547455 1229.061035,465.395599 1225.798340,460.945343 
	C1222.385498,456.290161 1219.403931,451.314728 1215.924194,446.713531 
	C1211.611206,441.010468 1206.954224,435.568726 1202.494263,429.975494 
	C1198.709473,425.229034 1194.821533,420.550751 1191.292480,415.618164 
	C1187.265015,409.989014 1183.816162,403.939636 1179.691406,398.388123 
	C1175.053955,392.146637 1169.755859,386.397217 1165.093140,380.173035 
	C1160.864990,374.528625 1161.210815,371.457489 1165.226074,367.298553 
	C1173.198364,359.041107 1181.102783,350.716919 1188.953735,342.344055 
	C1196.342163,334.464417 1203.578979,326.442627 1210.969116,318.564667 
	C1217.882446,311.194977 1224.945190,303.965698 1231.877686,296.613647 
	C1241.682617,286.215088 1251.483276,275.811340 1261.177368,265.309601 
	C1266.492920,259.551208 1271.744629,253.716354 1276.683472,247.638290 
	C1278.211304,245.757935 1278.614014,242.963272 1279.757446,240.003143 
	C1276.838989,240.003143 1275.184692,239.946304 1273.535400,240.011963 
	C1257.732056,240.641052 1241.822998,238.388992 1226.114502,241.934448 
	C1222.635376,242.719650 1218.876953,242.285751 1215.412109,243.108459 
	C1212.390259,243.826035 1209.029297,244.896637 1206.821289,246.910873 
	C1201.230957,252.010559 1196.101685,257.634155 1190.981812,263.225525 
	C1185.978760,268.689331 1181.402222,274.550659 1176.292603,279.907593 
	C1171.611084,284.815796 1166.153442,288.997925 1161.597290,294.008636 
	C1153.616699,302.785187 1146.304688,312.172729 1138.265381,320.891907 
	C1130.184326,329.656219 1121.329712,337.706329 1113.229248,346.453857 
	C1103.504395,356.955475 1094.271729,367.911285 1084.699341,378.556702 
	C1082.714111,380.764374 1080.174072,382.473175 1076.938599,385.219116 
	C1076.938599,336.562805 1076.938599,289.465240 1076.938599,242.211761 
	C1057.521484,242.211761 1038.450562,242.211761 1019.216064,242.211761 
	C1019.216064,345.818024 1019.216064,449.213654 1019.216064,552.999634 
	C1036.549805,552.999634 1053.673462,552.858276 1070.791748,553.098755 
	C1075.084595,553.159058 1076.141357,551.781372 1076.102905,547.678650 
	C1075.915161,527.682434 1076.053101,507.683350 1075.974731,487.685730 
	C1075.964722,485.121033 1075.439941,482.546387 1075.022095,479.997955 
	C1074.331421,475.785461 1074.777344,471.603271 1077.329712,468.289337 
	C1082.655396,461.374207 1088.388916,454.770569 1094.019653,448.093536 
	C1101.652222,439.042786 1109.568604,430.218964 1116.889648,420.924805 
	C1119.397095,417.741394 1121.255127,419.221191 1122.839966,420.735474 
	C1124.356445,422.184235 1125.005371,424.540833 1126.648193,426.982117 
M2754.991943,470.614166 
	C2756.090088,474.282379 2756.641357,478.240051 2758.398438,481.559540 
	C2762.264160,488.862793 2767.513184,495.509735 2770.762939,503.043427 
	C2774.524170,511.763000 2780.844238,518.312012 2787.152344,524.709290 
	C2792.941895,530.580261 2800.265625,534.932312 2806.878418,539.998901 
	C2815.101074,546.298645 2824.858154,549.862732 2834.429932,552.622742 
	C2844.723633,555.591003 2855.820801,556.133362 2866.625977,556.859741 
	C2876.414307,557.517883 2886.302734,557.399658 2896.108398,556.885864 
	C2905.850830,556.375305 2915.546631,554.962769 2925.258301,553.903259 
	C2927.185547,553.692993 2929.224609,553.622742 2930.984863,552.919373 
	C2938.989990,549.720032 2946.824219,546.079773 2954.890381,543.051697 
	C2963.909912,539.665833 2971.135986,533.521179 2978.431152,527.724731 
	C2984.269287,523.085999 2989.424561,517.273499 2993.807617,511.205414 
	C2998.233154,505.078735 3001.695557,498.166077 3004.934814,491.293579 
	C3010.196289,480.129028 3013.181885,468.127991 3015.850098,456.159454 
	C3017.678223,447.957794 3018.574219,439.443878 3018.893799,431.031830 
	C3019.599609,412.463654 3019.982666,393.870911 3019.940674,375.289459 
	C3019.877441,347.374054 3019.277344,319.460236 3019.024170,291.544678 
	C3018.888184,276.547241 3019.005615,261.547607 3018.991211,246.548950 
	C3018.989746,245.109192 3018.860596,243.669571 3018.792969,242.277649 
	C2999.382812,242.277649 2980.312012,242.277649 2961.001221,242.277649 
	C2961.001221,244.195023 2961.001221,245.836838 2961.001221,247.478653 
	C2961.000977,297.640778 2961.220703,347.804535 2960.850830,397.963959 
	C2960.754150,411.083099 2963.155029,424.362030 2959.090332,437.393585 
	C2957.568848,442.270691 2957.074219,447.471344 2956.166992,452.534485 
	C2955.936523,453.819672 2956.318848,455.362762 2955.740479,456.413330 
	C2952.159668,462.915955 2948.972168,469.760345 2944.502197,475.611206 
	C2940.403564,480.976166 2935.358154,485.981598 2929.784180,489.743835 
	C2925.069336,492.925995 2918.482178,493.281036 2913.639648,496.338440 
	C2903.920654,502.474976 2892.820068,501.798737 2882.324951,503.720734 
	C2877.361572,504.629639 2871.742920,502.984497 2866.616211,501.710876 
	C2860.431152,500.174255 2854.322998,498.118958 2848.430908,495.684357 
	C2844.412842,494.023895 2839.842041,492.122192 2837.252686,488.924042 
	C2832.479248,483.028229 2829.474121,475.719177 2824.827393,469.697144 
	C2818.969482,462.105164 2814.881104,453.603333 2812.303467,444.710632 
	C2809.983398,436.706207 2809.171875,428.025757 2809.134277,419.636993 
	C2808.877441,362.309998 2808.999756,304.981293 2809.000000,247.653122 
	C2809.000000,245.874130 2809.000000,244.095139 2809.000000,242.242096 
	C2789.456299,242.242096 2770.386230,242.242096 2751.000977,242.242096 
	C2751.000977,244.272781 2751.000732,246.075226 2751.000732,247.877670 
	C2751.000488,315.038269 2750.981201,382.198883 2751.029053,449.359467 
	C2751.034180,456.367218 2752.202881,463.225647 2754.991943,470.614166 
M1587.003418,396.383759 
	C1586.106812,394.156372 1585.153198,391.949799 1584.326538,389.696686 
	C1583.060913,386.246735 1582.085449,382.676453 1580.621704,379.316254 
	C1578.250244,373.873291 1575.464844,368.610962 1573.083984,363.171814 
	C1571.615967,359.818481 1570.735107,356.210815 1569.311157,352.835297 
	C1565.285400,343.292908 1560.940430,333.882141 1557.056641,324.283875 
	C1553.785645,316.200470 1551.247192,307.817963 1547.907715,299.765625 
	C1543.874023,290.040131 1539.640747,280.370789 1534.915405,270.967834 
	C1531.598877,264.368378 1528.101440,257.562561 1523.279297,252.086502 
	C1516.011353,243.832993 1506.347534,239.037003 1495.012573,239.058350 
	C1484.735352,239.077713 1474.276001,237.779053 1464.392822,242.004913 
	C1458.524780,244.513916 1453.144165,247.432755 1450.879639,254.157211 
	C1449.249878,258.997162 1446.988403,263.628296 1444.935791,268.320740 
	C1443.005371,272.734100 1440.896484,277.070496 1439.018799,281.505402 
	C1436.994507,286.286896 1435.249634,291.187469 1433.195801,295.955505 
	C1430.904541,301.274689 1428.238525,306.435669 1426.038574,311.789948 
	C1423.792969,317.254547 1422.106934,322.950195 1419.831543,328.401001 
	C1416.385010,336.657654 1412.562378,344.756592 1409.054077,352.988434 
	C1407.175049,357.397522 1405.762695,362.005371 1403.886108,366.415619 
	C1400.683838,373.941284 1397.162964,381.332062 1394.001465,388.874023 
	C1391.477295,394.895874 1389.446045,401.124695 1386.911011,407.141632 
	C1383.757935,414.625885 1380.189209,421.934845 1377.026611,429.415314 
	C1373.857788,436.910461 1371.145020,444.600220 1367.911865,452.065796 
	C1363.772705,461.622894 1359.185913,470.985840 1355.031250,480.536499 
	C1351.661011,488.284241 1348.652954,496.189331 1345.466919,504.017517 
	C1342.993408,510.094635 1340.465454,516.149536 1338.013428,522.235229 
	C1335.698486,527.980408 1333.279541,533.692566 1331.232300,539.533508 
	C1329.745239,543.776001 1328.789551,548.204651 1327.473755,552.999329 
	C1344.737305,552.999329 1360.883789,552.931335 1377.029175,553.031494 
	C1383.884888,553.074036 1389.714600,552.154297 1391.150635,543.785278 
	C1391.652588,540.859802 1393.198364,538.093872 1394.398071,535.311401 
	C1397.891602,527.208679 1401.567139,519.182434 1404.939819,511.030457 
	C1406.878906,506.343262 1408.211060,501.406891 1410.101074,496.696899 
	C1412.590576,490.493622 1415.515991,484.464050 1417.963013,478.245239 
	C1420.291382,472.327881 1422.103516,466.208099 1424.407104,460.280090 
	C1426.423340,455.091644 1428.885010,450.078064 1431.002563,444.926697 
	C1432.583618,441.079926 1433.753784,437.059570 1435.418945,433.253082 
	C1438.494263,426.223877 1442.006836,419.381226 1444.943359,412.297577 
	C1447.424683,406.312073 1449.104126,399.994720 1451.575562,394.004517 
	C1455.527710,384.425507 1460.059570,375.083862 1463.942871,365.478760 
	C1467.946289,355.576508 1471.240967,345.387238 1475.262329,335.492859 
	C1479.386719,325.344391 1484.015503,315.400848 1488.572388,305.028778 
	C1507.182617,350.702545 1525.682007,396.104584 1544.376953,441.986420 
	C1522.501709,441.986420 1501.353394,441.908691 1480.206909,442.076080 
	C1477.273315,442.099335 1474.112061,442.840363 1471.471802,444.111969 
	C1466.539917,446.487244 1461.539551,448.726257 1460.760010,455.638336 
	C1460.333252,459.422485 1457.584106,462.922363 1456.011475,466.605621 
	C1454.252930,470.723846 1452.519043,474.860718 1451.001343,479.071289 
	C1449.667847,482.770477 1448.647949,486.582794 1447.288208,490.999176 
	C1450.043335,490.999176 1451.837891,490.999176 1453.632446,490.999176 
	C1487.957031,490.999207 1522.281982,491.095734 1556.605591,490.902039 
	C1562.169922,490.870667 1565.040771,494.061768 1567.361572,497.996674 
	C1569.624512,501.833191 1571.358765,506.029480 1572.932129,510.215485 
	C1577.062622,521.204651 1580.987915,532.271057 1584.977783,543.312927 
	C1588.476318,552.995239 1588.465942,552.999023 1598.919678,552.999023 
	C1603.918335,552.999023 1608.917114,552.999023 1613.915771,552.999023 
	C1626.551880,552.999023 1639.188110,552.999023 1651.972900,552.999023 
	C1650.919434,549.424255 1650.006958,546.234619 1649.032227,543.064209 
	C1648.618042,541.717102 1648.104370,540.397888 1647.583374,539.086792 
	C1645.402344,533.597717 1643.219849,528.109070 1641.002075,522.634827 
	C1639.162476,518.094055 1637.383301,513.524048 1635.378662,509.056152 
	C1632.341431,502.286163 1628.942627,495.673615 1626.051758,488.844147 
	C1623.446411,482.689087 1621.599487,476.208649 1618.916138,470.091919 
	C1614.152222,459.231903 1608.758667,448.645355 1604.096191,437.744446 
	C1599.718140,427.509003 1596.026245,416.982178 1591.857056,406.654327 
	C1590.542480,403.397827 1588.662231,400.369598 1587.003418,396.383759 
M2476.985352,300.563873 
	C2475.986816,302.584839 2474.755371,304.526855 2474.037842,306.643066 
	C2472.501465,311.174652 2471.573975,315.936279 2469.773682,320.349426 
	C2466.762207,327.731934 2463.134766,334.860809 2460.012451,342.201141 
	C2457.761475,347.492584 2456.116943,353.044312 2453.820312,358.313507 
	C2451.645020,363.303192 2448.731445,367.972565 2446.581787,372.971680 
	C2444.135254,378.661499 2442.358887,384.637695 2439.958496,390.349670 
	C2436.802734,397.859924 2433.191162,405.178375 2430.026855,412.685272 
	C2427.793945,417.981812 2426.174316,423.537231 2423.932129,428.829346 
	C2420.441895,437.068878 2416.549316,445.137665 2413.035156,453.367523 
	C2411.040283,458.038239 2409.617188,462.951447 2407.660889,467.640411 
	C2403.504395,477.602173 2399.137207,487.475830 2394.920654,497.412781 
	C2393.307373,501.214813 2391.933594,505.118164 2390.334717,508.926727 
	C2388.281006,513.817932 2386.118896,518.663635 2383.988525,523.522522 
	C2382.119629,527.785095 2380.128174,531.997375 2378.376221,536.307007 
	C2376.222900,541.603271 2374.261475,546.977783 2371.956787,552.998840 
	C2389.862793,552.998840 2406.173340,552.969543 2422.483887,553.011963 
	C2429.899414,553.031250 2435.062744,549.187500 2437.921143,542.887817 
	C2442.855713,532.011841 2447.190918,520.860291 2451.648926,509.772858 
	C2454.557861,502.537811 2457.120361,495.162872 2460.055908,487.939148 
	C2463.520508,479.414612 2467.266846,471.004913 2470.791992,462.504242 
	C2472.015137,459.554688 2473.016357,456.505798 2473.985596,453.459869 
	C2475.145752,449.813629 2475.822510,445.976562 2477.314209,442.480469 
	C2480.326172,435.420532 2484.072754,428.665039 2486.916260,421.544281 
	C2490.291748,413.090363 2492.742676,404.266357 2496.142822,395.823486 
	C2499.018066,388.683350 2502.932861,381.966858 2505.928223,374.869141 
	C2510.810303,363.299835 2515.342529,351.582275 2519.976318,339.908966 
	C2523.683594,330.569305 2527.228516,321.163605 2531.076660,311.883087 
	C2531.774902,310.199280 2533.590088,308.978638 2534.744873,307.704010 
	C2552.801270,352.959442 2570.466553,397.234436 2588.322998,441.988892 
	C2574.059570,441.988892 2560.572510,441.757477 2547.097656,442.063965 
	C2536.783691,442.298584 2526.328857,440.438263 2516.177490,443.958923 
	C2511.516846,445.575195 2507.959961,448.392914 2506.069580,452.849884 
	C2502.669922,460.866058 2499.446289,468.965302 2496.442383,477.137634 
	C2494.839355,481.497681 2493.848877,486.082825 2492.460205,490.997864 
	C2528.427979,490.997864 2563.242188,491.289856 2598.045410,490.805908 
	C2607.517334,490.674194 2613.207764,497.506561 2615.543457,504.020203 
	C2618.330811,511.793610 2621.142822,519.558472 2623.993652,527.308716 
	C2625.189209,530.558655 2626.407715,533.808105 2627.809082,536.972046 
	C2629.065430,539.808472 2630.220459,542.814148 2632.098145,545.214783 
	C2633.884277,547.498230 2636.509766,550.686340 2638.832031,550.742493 
	C2657.456055,551.192505 2676.095947,550.994141 2695.770996,550.994141 
	C2694.343506,546.800354 2693.302246,543.158752 2691.872559,539.676697 
	C2689.577393,534.087341 2687.009033,528.610657 2684.585938,523.073242 
	C2681.385498,515.759399 2678.149902,508.459778 2675.058594,501.099609 
	C2673.639648,497.720398 2672.697998,494.138702 2671.246582,490.775391 
	C2667.249023,481.513000 2662.981445,472.366302 2659.050293,463.076599 
	C2656.759521,457.662872 2655.175293,451.944946 2652.795166,446.575714 
	C2649.788086,439.792053 2646.009033,433.346497 2643.085449,426.531067 
	C2639.694336,418.626831 2637.066895,410.397247 2633.753662,402.456757 
	C2628.672852,390.280182 2623.253174,378.245544 2618.049561,366.119659 
	C2615.292480,359.695435 2612.680176,353.208954 2610.016846,346.744781 
	C2607.154297,339.796844 2604.362793,332.819092 2601.440186,325.896606 
	C2598.219482,318.269470 2594.887207,310.689453 2591.599854,303.090546 
	C2588.737061,296.473175 2585.701904,289.924377 2583.041748,283.226746 
	C2579.053955,273.187469 2575.831299,262.813782 2571.342041,253.013535 
	C2567.283936,244.154388 2560.626709,238.320938 2549.722168,238.914505 
	C2536.828369,239.616379 2523.898438,239.905243 2510.985352,239.878281 
	C2506.223145,239.868332 2503.038574,242.265656 2501.286377,245.626312 
	C2496.201904,255.377502 2491.707031,265.445068 2487.215332,275.493469 
	C2483.636963,283.499268 2480.404053,291.659302 2476.985352,300.563873 
M2159.015137,340.616730 
	C2158.171387,338.396515 2157.352051,336.166687 2156.479492,333.957794 
	C2153.322021,325.965302 2150.036621,318.021301 2147.012695,309.978760 
	C2144.484375,303.254211 2142.417725,296.355011 2139.850342,289.646576 
	C2136.729248,281.491516 2133.368896,273.425171 2129.977783,265.377014 
	C2127.074951,258.487946 2124.329346,251.491226 2120.784424,244.936646 
	C2119.561768,242.675751 2116.167480,240.252808 2113.718750,240.203232 
	C2094.586426,239.815994 2075.442871,239.988922 2055.436768,239.988922 
	C2057.978027,247.678406 2060.048584,254.934906 2062.769775,261.938568 
	C2066.593018,271.779358 2071.010254,281.387817 2074.958008,291.182495 
	C2077.276123,296.934021 2078.982178,302.932281 2081.303711,308.682281 
	C2086.425537,321.368103 2091.802490,333.950745 2096.993164,346.609161 
	C2099.120361,351.797058 2100.904297,357.127502 2103.082520,362.292542 
	C2105.572510,368.196594 2108.432861,373.944244 2110.930420,379.845306 
	C2112.597656,383.784424 2113.852539,387.895996 2115.398438,391.889130 
	C2118.225586,399.191589 2121.170898,406.448364 2123.992432,413.752838 
	C2126.172119,419.395355 2128.038330,425.166931 2130.405273,430.727203 
	C2133.412109,437.789642 2136.995605,444.608856 2139.939941,451.695099 
	C2142.880127,458.770966 2145.256836,466.078857 2148.037109,473.224091 
	C2149.882812,477.967010 2152.120605,482.557312 2153.960693,487.302094 
	C2155.285889,490.719421 2156.029541,494.366974 2157.415527,497.754974 
	C2159.784912,503.545746 2162.584229,509.160400 2164.959961,514.948669 
	C2167.190918,520.384033 2169.016357,525.985107 2171.204834,531.439087 
	C2172.155273,533.807739 2173.508057,536.025513 2174.783691,538.251465 
	C2181.045654,549.178894 2190.679199,554.058716 2203.082275,554.007446 
	C2213.414307,553.964661 2223.747803,554.085571 2234.078857,553.967468 
	C2240.552734,553.893433 2245.368408,551.048706 2247.691406,544.737610 
	C2249.512695,539.789124 2251.062256,534.730774 2253.089355,529.870056 
	C2256.236328,522.323486 2259.808594,514.954407 2262.967529,507.412506 
	C2265.184326,502.119904 2266.989746,496.656006 2269.018799,491.283752 
	C2272.668701,481.619812 2276.233154,471.921143 2280.052979,462.324341 
	C2283.233887,454.331696 2286.851562,446.513153 2290.051514,438.527679 
	C2293.191650,430.690918 2295.950439,422.701660 2299.061035,414.852448 
	C2301.522461,408.641815 2304.406738,402.598083 2306.838379,396.376648 
	C2309.084961,390.628448 2310.913330,384.718231 2313.050049,378.925140 
	C2314.755615,374.300873 2316.635254,369.740479 2318.459717,365.160492 
	C2320.291992,360.560547 2322.231201,356.001434 2323.972900,351.367828 
	C2325.206787,348.085114 2325.965820,344.613190 2327.329834,341.392303 
	C2330.758057,333.298615 2334.530029,325.350037 2337.925781,317.243317 
	C2339.961426,312.383392 2341.391602,307.271851 2343.372314,302.386353 
	C2346.792480,293.950317 2350.518555,285.638489 2353.943115,277.204285 
	C2356.213135,271.613373 2358.378906,265.963776 2360.232422,260.224487 
	C2362.315430,253.774185 2363.994385,247.193344 2366.039062,240.001724 
	C2347.941650,240.001724 2331.307617,240.002411 2314.673584,240.001434 
	C2306.108154,240.000946 2302.918945,242.620300 2300.997314,251.235550 
	C2300.893311,251.701569 2300.828613,252.187576 2300.647705,252.623489 
	C2298.435303,257.943970 2296.118164,263.222687 2294.002686,268.581146 
	C2291.896729,273.917267 2290.111572,279.381165 2287.966309,284.700531 
	C2283.730225,295.204315 2279.103760,305.556366 2275.082520,316.139771 
	C2270.787842,327.442932 2267.016113,338.944489 2262.991211,350.350677 
	C2261.876709,353.509094 2260.732666,356.659607 2259.497803,359.772339 
	C2257.371582,365.132416 2255.013916,370.405304 2253.037354,375.818451 
	C2251.394531,380.317535 2250.435303,385.073883 2248.687012,389.525330 
	C2244.954590,399.027985 2240.786377,408.359192 2237.024658,417.851044 
	C2233.857178,425.843231 2230.965576,433.946381 2228.034424,442.030426 
	C2223.227539,455.287018 2218.487793,468.567963 2213.295166,483.020569 
	C2194.949463,435.127899 2177.005371,388.284454 2159.015137,340.616730 
M3169.399414,550.998718 
	C3171.172607,550.998718 3172.945557,550.998718 3174.643555,550.998718 
	C3174.643555,447.014160 3174.643555,343.538452 3174.643555,240.334747 
	C3155.552979,240.334747 3136.819580,240.334747 3118.262695,240.334747 
	C3118.262695,344.038727 3118.262695,447.396729 3118.262695,550.998718 
	C3135.163574,550.998718 3151.792969,550.998718 3169.399414,550.998718 
z"/>
<path fill="#FDFDFD" opacity="1.000000" stroke="none" 
	d="
M165.536819,1.000000 
	C166.000351,218.122269 166.033951,435.244568 165.834503,652.366638 
	C165.828751,658.641052 163.314789,664.905273 162.046127,671.189453 
	C161.287674,674.946411 161.069885,678.858276 159.917313,682.480347 
	C157.592255,689.787048 156.881516,697.506958 152.589249,704.356506 
	C149.426193,709.404114 148.727890,715.947632 145.837341,721.225403 
	C140.665802,730.667969 135.251129,740.089783 128.857285,748.719482 
	C122.240578,757.650024 114.759254,766.051086 106.873039,773.896545 
	C99.959373,780.774597 92.429909,787.268860 84.321869,792.651306 
	C74.278107,799.318604 63.465607,804.871582 52.760235,810.476257 
	C48.704105,812.599792 44.102524,813.872803 39.607029,814.923767 
	C31.627962,816.788818 23.573046,818.394592 15.482549,819.687683 
	C11.940358,820.253784 8.232435,819.782959 4.228790,819.782959 
	C4.154644,818.407593 4.009572,816.972656 4.009504,815.537659 
	C3.999241,597.917786 3.968240,380.297852 4.165236,162.678146 
	C4.170588,156.766449 6.696379,150.868683 7.940951,144.942200 
	C8.728582,141.191605 8.979900,137.297119 10.081168,133.651245 
	C11.594510,128.641174 13.573221,123.759834 15.554767,118.905884 
	C18.261364,112.275856 20.985220,105.642212 24.028990,99.163895 
	C26.409056,94.098206 29.015944,89.094765 32.007385,84.371010 
	C36.504139,77.270233 41.050556,70.138939 46.284042,63.586239 
	C50.488682,58.321743 55.545055,53.675331 60.576473,49.146843 
	C69.818954,40.828213 79.292175,32.794048 90.456551,26.998903 
	C96.958969,23.623661 102.993118,19.269152 109.663765,16.317579 
	C115.915352,13.551429 122.755463,12.136243 129.285095,9.971237 
	C134.904785,8.107936 140.435959,5.979241 146.038284,4.061330 
	C148.547943,3.202163 152.126770,5.810355 153.324554,1.354705 
	C157.024551,1.000000 161.049088,1.000000 165.536819,1.000000 
z"/>
<path fill="#FDFDFD" opacity="1.000000" stroke="none" 
	d="
M695.531372,1.000000 
	C697.623108,7.486638 692.673889,11.352043 689.618225,15.664095 
	C685.969360,20.813349 681.095215,25.074791 677.053223,29.969763 
	C671.467041,36.734825 666.370972,43.909832 660.687622,50.588192 
	C652.412720,60.311886 643.648376,69.619438 635.385803,79.353218 
	C629.453918,86.341362 624.029724,93.758881 618.327637,100.944008 
	C610.914795,110.284714 603.532227,119.651588 595.979309,128.878342 
	C591.220276,134.692017 586.053101,140.171402 581.289734,145.981689 
	C576.694641,151.586716 572.424438,157.456940 567.917053,163.135727 
	C566.808655,164.532257 565.192383,165.520264 564.048035,166.894638 
	C555.226013,177.489899 546.542664,188.201508 537.647034,198.734085 
	C533.305481,203.874512 528.390686,208.535202 524.114441,213.725327 
	C518.296387,220.786697 512.928101,228.216675 507.202911,235.357086 
	C502.509216,241.211044 497.524567,246.830704 492.760742,252.629684 
	C485.251892,261.770081 477.860504,271.007050 470.340881,280.138489 
	C465.663605,285.818298 460.917847,291.446014 456.060394,296.971893 
	C452.155731,301.413910 447.874847,305.530182 444.049652,310.036072 
	C437.570221,317.668518 431.312317,325.489227 424.972687,333.240082 
	C415.333588,345.024811 405.728363,356.837311 396.062195,368.599731 
	C389.837341,376.174622 383.568329,383.714081 377.247101,391.208679 
	C371.064911,398.538483 364.730347,405.740112 358.573669,413.090973 
	C351.396973,421.659698 344.272034,430.273804 337.250153,438.969574 
	C328.963287,449.231934 320.937897,459.707458 312.552368,469.887299 
	C307.495697,476.025940 301.826111,481.656799 296.694061,487.737091 
	C291.247864,494.189484 286.148376,500.933594 280.805450,507.475098 
	C279.867462,508.623474 278.263092,509.228516 277.328400,510.378601 
	C271.103027,518.038513 265.033020,525.825073 258.779205,533.461243 
	C257.081848,535.533752 254.734970,537.070679 253.012329,539.126709 
	C244.555923,549.219421 236.293549,559.475281 227.795090,569.531982 
	C222.029968,576.354248 215.999527,582.952881 210.066483,589.632629 
	C204.870193,595.482788 199.685760,601.344910 194.387634,607.101868 
	C193.568863,607.991577 191.734253,609.125305 191.126175,608.786804 
	C189.823593,608.061707 188.825638,606.549805 188.079758,605.158142 
	C187.662918,604.380493 187.998947,603.198181 187.998932,602.198242 
	C187.998505,560.365540 187.062149,518.500305 188.511749,476.717865 
	C189.011780,462.305328 189.006561,447.790802 190.130310,433.384552 
	C190.736755,425.610199 192.384476,417.872620 194.113358,410.243317 
	C195.693069,403.272308 197.801727,396.397949 200.079132,389.615906 
	C201.814453,384.448120 204.099442,379.456787 206.288269,374.451843 
	C208.080551,370.353668 209.837555,366.204865 212.063599,362.339600 
	C215.668304,356.080444 219.961563,350.206177 223.384476,343.856903 
	C227.732895,335.790802 233.901672,329.126617 239.091202,321.752258 
	C246.353653,311.432251 254.582260,302.058105 262.736633,292.531616 
	C268.655151,285.617126 273.983734,278.200745 279.670593,271.084229 
	C288.259644,260.335907 296.837128,249.575836 305.596252,238.966675 
	C313.666626,229.191757 322.113861,219.726151 330.108795,209.891525 
	C333.962708,205.150803 336.880554,199.651505 340.711029,194.888809 
	C348.052612,185.760437 355.778259,176.941956 363.277985,167.939438 
	C369.352448,160.647751 375.341370,153.284607 381.346649,145.935532 
	C389.218567,136.302078 397.051392,126.636620 404.934875,117.012642 
	C410.972321,109.642258 417.239014,102.452118 423.080902,94.931076 
	C429.396698,86.799904 435.197723,78.269554 441.490662,70.119759 
	C445.745117,64.609886 450.541046,59.521782 454.952820,54.128860 
	C461.129150,46.578918 467.137115,38.891350 473.297089,31.327782 
	C475.037933,29.190279 477.115814,27.330950 478.938080,25.255314 
	C482.936096,20.701464 486.648376,15.872779 490.894623,11.567928 
	C494.740753,7.668718 498.695160,3.573124 505.033386,3.887337 
	C505.866791,3.928652 506.774597,2.469725 507.323975,1.352824 
	C520.354248,1.000000 533.708435,1.000000 547.203552,1.364251 
	C548.373413,2.485712 549.394470,3.888862 550.432678,3.901671 
	C562.806335,4.054332 575.183350,4.057670 587.556091,3.871302 
	C588.384949,3.858817 589.186035,2.000047 590.000000,0.999998 
	C625.020874,1.000000 660.041809,1.000000 695.531372,1.000000 
z"/>
<path fill="#000000" opacity="1.000000" stroke="none" 
	d="
M589.531372,0.999998 
	C589.186035,2.000047 588.384949,3.858817 587.556091,3.871302 
	C575.183350,4.057670 562.806335,4.054332 550.432678,3.901671 
	C549.394470,3.888862 548.373413,2.485712 547.672241,1.364251 
	C561.687561,1.000000 575.375122,1.000000 589.531372,0.999998 
z"/>
<path fill="#FDFCFC" opacity="1.000000" stroke="none" 
	d="
M328.046387,484.994110 
	C336.298370,474.654144 343.977783,464.235321 352.033051,454.115662 
	C359.151917,445.172394 366.570648,436.457336 374.138031,427.889832 
	C375.745514,426.069824 378.569214,425.324005 380.121429,424.473083 
	C382.524078,427.440582 384.097595,429.287964 385.566101,431.215363 
	C390.423584,437.590912 395.198883,444.029480 400.094482,450.375427 
	C402.864960,453.966675 405.822113,457.413452 408.672485,460.943604 
	C419.458374,474.301849 430.140930,487.744934 441.048553,501.002899 
	C448.122894,509.601624 455.763855,517.740356 462.703033,526.442383 
	C469.220764,534.615845 475.007141,543.368835 481.394623,551.651428 
	C484.961090,556.276062 489.244629,560.340881 492.943878,564.871216 
	C500.474579,574.093750 507.768372,583.509399 515.269897,592.756226 
	C524.776367,604.474365 534.420166,616.080933 543.952698,627.778076 
	C552.427124,638.176758 560.837280,648.627869 569.263367,659.065979 
	C577.187805,668.882690 585.206665,678.625916 592.976990,688.563354 
	C599.518005,696.928528 605.686279,705.584167 612.156433,714.006042 
	C619.791077,723.943604 627.448364,733.868896 635.340698,743.601013 
	C639.618469,748.875854 644.626526,753.558105 648.910400,758.828552 
	C655.144714,766.498657 661.002197,774.474426 667.062195,782.287354 
	C669.842285,785.871460 672.675415,789.416931 675.566040,792.912415 
	C681.677856,800.303162 687.894653,807.607788 693.929932,815.059937 
	C694.809998,816.146606 694.928345,817.850220 695.641785,819.999084 
	C693.164062,819.999084 691.399353,819.999023 689.634644,819.999023 
	C626.147583,819.999023 562.660522,820.000305 499.173492,819.997070 
	C493.834869,819.996826 488.990509,820.040039 486.435516,813.433838 
	C484.897827,809.458130 480.814789,806.492615 477.982422,802.986877 
	C470.387207,793.585876 462.892914,784.103027 455.271118,774.723816 
	C451.289948,769.824585 447.014526,765.163208 443.068481,760.237000 
	C437.370789,753.123901 431.890717,745.836914 426.243774,738.682556 
	C421.808990,733.063965 417.145142,727.623474 412.792786,721.943176 
	C406.407928,713.610229 400.245514,705.107178 393.916595,696.730835 
	C391.180511,693.109619 388.319672,689.578491 385.420471,686.085388 
	C378.766846,678.068909 371.985382,670.157776 365.382477,662.100098 
	C354.705078,649.070251 343.835693,636.180542 333.637726,622.782288 
	C328.710815,616.309265 325.931000,608.135864 320.722504,601.960876 
	C314.795593,594.934265 312.575989,586.173096 307.622711,578.767090 
	C305.228210,575.186829 304.491608,570.498962 302.997681,566.314941 
	C301.181366,561.228027 298.748016,556.267212 297.686829,551.027954 
	C296.248077,543.924744 294.275574,536.327759 295.494812,529.469238 
	C296.564117,523.454224 301.492798,518.013184 305.137329,512.601746 
	C308.317719,507.879547 311.994995,503.478699 315.616547,499.070496 
	C319.524200,494.313934 323.622223,489.713715 328.046387,484.994110 
z"/>
<path fill="#F7F7F6" opacity="1.000000" stroke="none" 
	d="
M1976.963257,552.998169 
	C1965.636353,552.998718 1954.724365,552.182556 1943.999023,553.246704 
	C1934.673096,554.171997 1929.977539,549.020203 1925.362427,542.823853 
	C1921.270020,537.329224 1917.428833,531.648193 1913.414917,526.094177 
	C1908.901123,519.848328 1904.401733,513.588562 1899.729614,507.461792 
	C1897.375854,504.375092 1894.505127,501.684692 1892.125854,498.615295 
	C1883.298096,487.227631 1874.578979,475.755646 1865.815552,464.318085 
	C1861.316772,458.446320 1856.716797,452.649323 1852.331055,446.694397 
	C1846.789062,439.169373 1841.513794,431.447449 1835.947266,423.941223 
	C1830.703003,416.869812 1825.168213,410.014526 1819.871948,402.980865 
	C1812.187012,392.774994 1804.667603,382.444122 1796.946533,372.266022 
	C1792.991455,367.052307 1788.674194,362.114624 1784.663574,356.941406 
	C1781.090820,352.333282 1777.714844,347.572632 1773.451904,341.794525 
	C1773.451904,412.814575 1773.451904,482.583435 1773.451904,552.680664 
	C1753.806396,552.680664 1734.734253,552.680664 1715.327393,552.680664 
	C1715.327393,448.835663 1715.327393,344.777557 1715.327393,240.270584 
	C1716.272339,240.197098 1717.523438,240.017532 1718.774780,240.015289 
	C1730.772095,239.993759 1742.800171,240.534454 1754.757935,239.846359 
	C1765.838257,239.208771 1772.193115,245.313248 1778.023926,253.219406 
	C1782.037598,258.661743 1786.517456,263.759094 1790.561401,269.180420 
	C1794.853760,274.934998 1798.753906,280.982330 1803.054688,286.730316 
	C1806.955811,291.944244 1811.308716,296.820404 1815.204468,302.038086 
	C1820.944092,309.724762 1826.381348,317.636597 1832.088745,325.347992 
	C1835.810791,330.377197 1839.790039,335.215820 1843.642334,340.148926 
	C1848.104126,345.862488 1852.575928,351.568268 1857.000122,357.310760 
	C1860.516602,361.875122 1863.950562,366.502991 1867.453857,371.077667 
	C1870.286011,374.776001 1873.185791,378.422638 1876.021729,382.118195 
	C1880.737427,388.263306 1885.467529,394.398163 1890.116699,400.593536 
	C1897.955444,411.039124 1905.803711,421.479004 1913.512939,432.019989 
	C1917.506592,437.480804 1921.210449,443.153442 1925.876221,449.938904 
	C1925.876221,379.783539 1925.876221,311.140259 1925.876221,242.249176 
	C1946.006714,242.249176 1965.742554,242.249176 1985.739502,242.249176 
	C1985.739502,345.686066 1985.739502,449.074341 1985.739502,552.998169 
	C1983.005127,552.998169 1980.232178,552.998169 1976.963257,552.998169 
z"/>
<path fill="#F6F6F5" opacity="1.000000" stroke="none" 
	d="
M1126.341919,426.740265 
	C1125.005371,424.540833 1124.356445,422.184235 1122.839966,420.735474 
	C1121.255127,419.221191 1119.397095,417.741394 1116.889648,420.924805 
	C1109.568604,430.218964 1101.652222,439.042786 1094.019653,448.093536 
	C1088.388916,454.770569 1082.655396,461.374207 1077.329712,468.289337 
	C1074.777344,471.603271 1074.331421,475.785461 1075.022095,479.997955 
	C1075.439941,482.546387 1075.964722,485.121033 1075.974731,487.685730 
	C1076.053101,507.683350 1075.915161,527.682434 1076.102905,547.678650 
	C1076.141357,551.781372 1075.084595,553.159058 1070.791748,553.098755 
	C1053.673462,552.858276 1036.549805,552.999634 1019.216064,552.999634 
	C1019.216064,449.213654 1019.216064,345.818024 1019.216064,242.211761 
	C1038.450562,242.211761 1057.521484,242.211761 1076.938599,242.211761 
	C1076.938599,289.465240 1076.938599,336.562805 1076.938599,385.219116 
	C1080.174072,382.473175 1082.714111,380.764374 1084.699341,378.556702 
	C1094.271729,367.911285 1103.504395,356.955475 1113.229248,346.453857 
	C1121.329712,337.706329 1130.184326,329.656219 1138.265381,320.891907 
	C1146.304688,312.172729 1153.616699,302.785187 1161.597290,294.008636 
	C1166.153442,288.997925 1171.611084,284.815796 1176.292603,279.907593 
	C1181.402222,274.550659 1185.978760,268.689331 1190.981812,263.225525 
	C1196.101685,257.634155 1201.230957,252.010559 1206.821289,246.910873 
	C1209.029297,244.896637 1212.390259,243.826035 1215.412109,243.108459 
	C1218.876953,242.285751 1222.635376,242.719650 1226.114502,241.934448 
	C1241.822998,238.388992 1257.732056,240.641052 1273.535400,240.011963 
	C1275.184692,239.946304 1276.838989,240.003143 1279.757446,240.003143 
	C1278.614014,242.963272 1278.211304,245.757935 1276.683472,247.638290 
	C1271.744629,253.716354 1266.492920,259.551208 1261.177368,265.309601 
	C1251.483276,275.811340 1241.682617,286.215088 1231.877686,296.613647 
	C1224.945190,303.965698 1217.882446,311.194977 1210.969116,318.564667 
	C1203.578979,326.442627 1196.342163,334.464417 1188.953735,342.344055 
	C1181.102783,350.716919 1173.198364,359.041107 1165.226074,367.298553 
	C1161.210815,371.457489 1160.864990,374.528625 1165.093140,380.173035 
	C1169.755859,386.397217 1175.053955,392.146637 1179.691406,398.388123 
	C1183.816162,403.939636 1187.265015,409.989014 1191.292480,415.618164 
	C1194.821533,420.550751 1198.709473,425.229034 1202.494263,429.975494 
	C1206.954224,435.568726 1211.611206,441.010468 1215.924194,446.713531 
	C1219.403931,451.314728 1222.385498,456.290161 1225.798340,460.945343 
	C1229.061035,465.395599 1232.732178,469.547455 1235.969116,474.015045 
	C1238.895996,478.054749 1241.323608,482.457153 1244.263550,486.486298 
	C1246.509644,489.564545 1249.298828,492.239960 1251.694458,495.216888 
	C1257.173096,502.024750 1262.581787,508.889313 1267.975830,515.764526 
	C1274.848022,524.523438 1281.773926,533.243042 1288.472778,542.133179 
	C1290.771484,545.183777 1292.456787,548.696533 1294.745972,552.541809 
	C1293.209473,552.705078 1291.824585,552.978638 1290.439331,552.980469 
	C1269.608154,553.007446 1248.776733,552.960205 1227.945801,553.022095 
	C1221.761719,553.040466 1219.408691,547.686646 1216.250000,544.184326 
	C1210.706665,538.038086 1206.382202,530.805176 1201.395508,524.141052 
	C1195.764648,516.616028 1190.030029,509.166351 1184.220459,501.778320 
	C1179.708862,496.040802 1174.799805,490.606842 1170.445801,484.756287 
	C1162.703125,474.352264 1155.354370,463.655518 1147.635254,453.233429 
	C1142.092407,445.749634 1136.234619,438.498230 1130.470825,431.179688 
	C1129.302979,429.696716 1127.927856,428.377075 1126.341919,426.740265 
z"/>
<path fill="#F9F9F7" opacity="1.000000" stroke="none" 
	d="
M2754.975586,470.177185 
	C2752.202881,463.225647 2751.034180,456.367218 2751.029053,449.359467 
	C2750.981201,382.198883 2751.000488,315.038269 2751.000732,247.877670 
	C2751.000732,246.075226 2751.000977,244.272781 2751.000977,242.242096 
	C2770.386230,242.242096 2789.456299,242.242096 2809.000000,242.242096 
	C2809.000000,244.095139 2809.000000,245.874130 2809.000000,247.653122 
	C2808.999756,304.981293 2808.877441,362.309998 2809.134277,419.636993 
	C2809.171875,428.025757 2809.983398,436.706207 2812.303467,444.710632 
	C2814.881104,453.603333 2818.969482,462.105164 2824.827393,469.697144 
	C2829.474121,475.719177 2832.479248,483.028229 2837.252686,488.924042 
	C2839.842041,492.122192 2844.412842,494.023895 2848.430908,495.684357 
	C2854.322998,498.118958 2860.431152,500.174255 2866.616211,501.710876 
	C2871.742920,502.984497 2877.361572,504.629639 2882.324951,503.720734 
	C2892.820068,501.798737 2903.920654,502.474976 2913.639648,496.338440 
	C2918.482178,493.281036 2925.069336,492.925995 2929.784180,489.743835 
	C2935.358154,485.981598 2940.403564,480.976166 2944.502197,475.611206 
	C2948.972168,469.760345 2952.159668,462.915955 2955.740479,456.413330 
	C2956.318848,455.362762 2955.936523,453.819672 2956.166992,452.534485 
	C2957.074219,447.471344 2957.568848,442.270691 2959.090332,437.393585 
	C2963.155029,424.362030 2960.754150,411.083099 2960.850830,397.963959 
	C2961.220703,347.804535 2961.000977,297.640778 2961.001221,247.478653 
	C2961.001221,245.836838 2961.001221,244.195023 2961.001221,242.277649 
	C2980.312012,242.277649 2999.382812,242.277649 3018.792969,242.277649 
	C3018.860596,243.669571 3018.989746,245.109192 3018.991211,246.548950 
	C3019.005615,261.547607 3018.888184,276.547241 3019.024170,291.544678 
	C3019.277344,319.460236 3019.877441,347.374054 3019.940674,375.289459 
	C3019.982666,393.870911 3019.599609,412.463654 3018.893799,431.031830 
	C3018.574219,439.443878 3017.678223,447.957794 3015.850098,456.159454 
	C3013.181885,468.127991 3010.196289,480.129028 3004.934814,491.293579 
	C3001.695557,498.166077 2998.233154,505.078735 2993.807617,511.205414 
	C2989.424561,517.273499 2984.269287,523.085999 2978.431152,527.724731 
	C2971.135986,533.521179 2963.909912,539.665833 2954.890381,543.051697 
	C2946.824219,546.079773 2938.989990,549.720032 2930.984863,552.919373 
	C2929.224609,553.622742 2927.185547,553.692993 2925.258301,553.903259 
	C2915.546631,554.962769 2905.850830,556.375305 2896.108398,556.885864 
	C2886.302734,557.399658 2876.414307,557.517883 2866.625977,556.859741 
	C2855.820801,556.133362 2844.723633,555.591003 2834.429932,552.622742 
	C2824.858154,549.862732 2815.101074,546.298645 2806.878418,539.998901 
	C2800.265625,534.932312 2792.941895,530.580261 2787.152344,524.709290 
	C2780.844238,518.312012 2774.524170,511.763000 2770.762939,503.043427 
	C2767.513184,495.509735 2762.264160,488.862793 2758.398438,481.559540 
	C2756.641357,478.240051 2756.090088,474.282379 2754.975586,470.177185 
z"/>
<path fill="#F8F8F7" opacity="1.000000" stroke="none" 
	d="
M1587.022217,396.810333 
	C1588.662231,400.369598 1590.542480,403.397827 1591.857056,406.654327 
	C1596.026245,416.982178 1599.718140,427.509003 1604.096191,437.744446 
	C1608.758667,448.645355 1614.152222,459.231903 1618.916138,470.091919 
	C1621.599487,476.208649 1623.446411,482.689087 1626.051758,488.844147 
	C1628.942627,495.673615 1632.341431,502.286163 1635.378662,509.056152 
	C1637.383301,513.524048 1639.162476,518.094055 1641.002075,522.634827 
	C1643.219849,528.109070 1645.402344,533.597717 1647.583374,539.086792 
	C1648.104370,540.397888 1648.618042,541.717102 1649.032227,543.064209 
	C1650.006958,546.234619 1650.919434,549.424255 1651.972900,552.999023 
	C1639.188110,552.999023 1626.551880,552.999023 1613.915771,552.999023 
	C1608.917114,552.999023 1603.918335,552.999023 1598.919678,552.999023 
	C1588.465942,552.999023 1588.476318,552.995239 1584.977783,543.312927 
	C1580.987915,532.271057 1577.062622,521.204651 1572.932129,510.215485 
	C1571.358765,506.029480 1569.624512,501.833191 1567.361572,497.996674 
	C1565.040771,494.061768 1562.169922,490.870667 1556.605591,490.902039 
	C1522.281982,491.095734 1487.957031,490.999207 1453.632446,490.999176 
	C1451.837891,490.999176 1450.043335,490.999176 1447.288208,490.999176 
	C1448.647949,486.582794 1449.667847,482.770477 1451.001343,479.071289 
	C1452.519043,474.860718 1454.252930,470.723846 1456.011475,466.605621 
	C1457.584106,462.922363 1460.333252,459.422485 1460.760010,455.638336 
	C1461.539551,448.726257 1466.539917,446.487244 1471.471802,444.111969 
	C1474.112061,442.840363 1477.273315,442.099335 1480.206909,442.076080 
	C1501.353394,441.908691 1522.501709,441.986420 1544.376953,441.986420 
	C1525.682007,396.104584 1507.182617,350.702545 1488.572388,305.028778 
	C1484.015503,315.400848 1479.386719,325.344391 1475.262329,335.492859 
	C1471.240967,345.387238 1467.946289,355.576508 1463.942871,365.478760 
	C1460.059570,375.083862 1455.527710,384.425507 1451.575562,394.004517 
	C1449.104126,399.994720 1447.424683,406.312073 1444.943359,412.297577 
	C1442.006836,419.381226 1438.494263,426.223877 1435.418945,433.253082 
	C1433.753784,437.059570 1432.583618,441.079926 1431.002563,444.926697 
	C1428.885010,450.078064 1426.423340,455.091644 1424.407104,460.280090 
	C1422.103516,466.208099 1420.291382,472.327881 1417.963013,478.245239 
	C1415.515991,484.464050 1412.590576,490.493622 1410.101074,496.696899 
	C1408.211060,501.406891 1406.878906,506.343262 1404.939819,511.030457 
	C1401.567139,519.182434 1397.891602,527.208679 1394.398071,535.311401 
	C1393.198364,538.093872 1391.652588,540.859802 1391.150635,543.785278 
	C1389.714600,552.154297 1383.884888,553.074036 1377.029175,553.031494 
	C1360.883789,552.931335 1344.737305,552.999329 1327.473755,552.999329 
	C1328.789551,548.204651 1329.745239,543.776001 1331.232300,539.533508 
	C1333.279541,533.692566 1335.698486,527.980408 1338.013428,522.235229 
	C1340.465454,516.149536 1342.993408,510.094635 1345.466919,504.017517 
	C1348.652954,496.189331 1351.661011,488.284241 1355.031250,480.536499 
	C1359.185913,470.985840 1363.772705,461.622894 1367.911865,452.065796 
	C1371.145020,444.600220 1373.857788,436.910461 1377.026611,429.415314 
	C1380.189209,421.934845 1383.757935,414.625885 1386.911011,407.141632 
	C1389.446045,401.124695 1391.477295,394.895874 1394.001465,388.874023 
	C1397.162964,381.332062 1400.683838,373.941284 1403.886108,366.415619 
	C1405.762695,362.005371 1407.175049,357.397522 1409.054077,352.988434 
	C1412.562378,344.756592 1416.385010,336.657654 1419.831543,328.401001 
	C1422.106934,322.950195 1423.792969,317.254547 1426.038574,311.789948 
	C1428.238525,306.435669 1430.904541,301.274689 1433.195801,295.955505 
	C1435.249634,291.187469 1436.994507,286.286896 1439.018799,281.505402 
	C1440.896484,277.070496 1443.005371,272.734100 1444.935791,268.320740 
	C1446.988403,263.628296 1449.249878,258.997162 1450.879639,254.157211 
	C1453.144165,247.432755 1458.524780,244.513916 1464.392822,242.004913 
	C1474.276001,237.779053 1484.735352,239.077713 1495.012573,239.058350 
	C1506.347534,239.037003 1516.011353,243.832993 1523.279297,252.086502 
	C1528.101440,257.562561 1531.598877,264.368378 1534.915405,270.967834 
	C1539.640747,280.370789 1543.874023,290.040131 1547.907715,299.765625 
	C1551.247192,307.817963 1553.785645,316.200470 1557.056641,324.283875 
	C1560.940430,333.882141 1565.285400,343.292908 1569.311157,352.835297 
	C1570.735107,356.210815 1571.615967,359.818481 1573.083984,363.171814 
	C1575.464844,368.610962 1578.250244,373.873291 1580.621704,379.316254 
	C1582.085449,382.676453 1583.060913,386.246735 1584.326538,389.696686 
	C1585.153198,391.949799 1586.106812,394.156372 1587.022217,396.810333 
z"/>
<path fill="#F8F8F7" opacity="1.000000" stroke="none" 
	d="
M2477.001465,300.157349 
	C2480.404053,291.659302 2483.636963,283.499268 2487.215332,275.493469 
	C2491.707031,265.445068 2496.201904,255.377502 2501.286377,245.626312 
	C2503.038574,242.265656 2506.223145,239.868332 2510.985352,239.878281 
	C2523.898438,239.905243 2536.828369,239.616379 2549.722168,238.914505 
	C2560.626709,238.320938 2567.283936,244.154388 2571.342041,253.013535 
	C2575.831299,262.813782 2579.053955,273.187469 2583.041748,283.226746 
	C2585.701904,289.924377 2588.737061,296.473175 2591.599854,303.090546 
	C2594.887207,310.689453 2598.219482,318.269470 2601.440186,325.896606 
	C2604.362793,332.819092 2607.154297,339.796844 2610.016846,346.744781 
	C2612.680176,353.208954 2615.292480,359.695435 2618.049561,366.119659 
	C2623.253174,378.245544 2628.672852,390.280182 2633.753662,402.456757 
	C2637.066895,410.397247 2639.694336,418.626831 2643.085449,426.531067 
	C2646.009033,433.346497 2649.788086,439.792053 2652.795166,446.575714 
	C2655.175293,451.944946 2656.759521,457.662872 2659.050293,463.076599 
	C2662.981445,472.366302 2667.249023,481.513000 2671.246582,490.775391 
	C2672.697998,494.138702 2673.639648,497.720398 2675.058594,501.099609 
	C2678.149902,508.459778 2681.385498,515.759399 2684.585938,523.073242 
	C2687.009033,528.610657 2689.577393,534.087341 2691.872559,539.676697 
	C2693.302246,543.158752 2694.343506,546.800354 2695.770996,550.994141 
	C2676.095947,550.994141 2657.456055,551.192505 2638.832031,550.742493 
	C2636.509766,550.686340 2633.884277,547.498230 2632.098145,545.214783 
	C2630.220459,542.814148 2629.065430,539.808472 2627.809082,536.972046 
	C2626.407715,533.808105 2625.189209,530.558655 2623.993652,527.308716 
	C2621.142822,519.558472 2618.330811,511.793610 2615.543457,504.020203 
	C2613.207764,497.506561 2607.517334,490.674194 2598.045410,490.805908 
	C2563.242188,491.289856 2528.427979,490.997864 2492.460205,490.997864 
	C2493.848877,486.082825 2494.839355,481.497681 2496.442383,477.137634 
	C2499.446289,468.965302 2502.669922,460.866058 2506.069580,452.849884 
	C2507.959961,448.392914 2511.516846,445.575195 2516.177490,443.958923 
	C2526.328857,440.438263 2536.783691,442.298584 2547.097656,442.063965 
	C2560.572510,441.757477 2574.059570,441.988892 2588.322998,441.988892 
	C2570.466553,397.234436 2552.801270,352.959442 2534.744873,307.704010 
	C2533.590088,308.978638 2531.774902,310.199280 2531.076660,311.883087 
	C2527.228516,321.163605 2523.683594,330.569305 2519.976318,339.908966 
	C2515.342529,351.582275 2510.810303,363.299835 2505.928223,374.869141 
	C2502.932861,381.966858 2499.018066,388.683350 2496.142822,395.823486 
	C2492.742676,404.266357 2490.291748,413.090363 2486.916260,421.544281 
	C2484.072754,428.665039 2480.326172,435.420532 2477.314209,442.480469 
	C2475.822510,445.976562 2475.145752,449.813629 2473.985596,453.459869 
	C2473.016357,456.505798 2472.015137,459.554688 2470.791992,462.504242 
	C2467.266846,471.004913 2463.520508,479.414612 2460.055908,487.939148 
	C2457.120361,495.162872 2454.557861,502.537811 2451.648926,509.772858 
	C2447.190918,520.860291 2442.855713,532.011841 2437.921143,542.887817 
	C2435.062744,549.187500 2429.899414,553.031250 2422.483887,553.011963 
	C2406.173340,552.969543 2389.862793,552.998840 2371.956787,552.998840 
	C2374.261475,546.977783 2376.222900,541.603271 2378.376221,536.307007 
	C2380.128174,531.997375 2382.119629,527.785095 2383.988525,523.522522 
	C2386.118896,518.663635 2388.281006,513.817932 2390.334717,508.926727 
	C2391.933594,505.118164 2393.307373,501.214813 2394.920654,497.412781 
	C2399.137207,487.475830 2403.504395,477.602173 2407.660889,467.640411 
	C2409.617188,462.951447 2411.040283,458.038239 2413.035156,453.367523 
	C2416.549316,445.137665 2420.441895,437.068878 2423.932129,428.829346 
	C2426.174316,423.537231 2427.793945,417.981812 2430.026855,412.685272 
	C2433.191162,405.178375 2436.802734,397.859924 2439.958496,390.349670 
	C2442.358887,384.637695 2444.135254,378.661499 2446.581787,372.971680 
	C2448.731445,367.972565 2451.645020,363.303192 2453.820312,358.313507 
	C2456.116943,353.044312 2457.761475,347.492584 2460.012451,342.201141 
	C2463.134766,334.860809 2466.762207,327.731934 2469.773682,320.349426 
	C2471.573975,315.936279 2472.501465,311.174652 2474.037842,306.643066 
	C2474.755371,304.526855 2475.986816,302.584839 2477.001465,300.157349 
z"/>
<path fill="#F8F8F7" opacity="1.000000" stroke="none" 
	d="
M2159.038086,341.028870 
	C2177.005371,388.284454 2194.949463,435.127899 2213.295166,483.020569 
	C2218.487793,468.567963 2223.227539,455.287018 2228.034424,442.030426 
	C2230.965576,433.946381 2233.857178,425.843231 2237.024658,417.851044 
	C2240.786377,408.359192 2244.954590,399.027985 2248.687012,389.525330 
	C2250.435303,385.073883 2251.394531,380.317535 2253.037354,375.818451 
	C2255.013916,370.405304 2257.371582,365.132416 2259.497803,359.772339 
	C2260.732666,356.659607 2261.876709,353.509094 2262.991211,350.350677 
	C2267.016113,338.944489 2270.787842,327.442932 2275.082520,316.139771 
	C2279.103760,305.556366 2283.730225,295.204315 2287.966309,284.700531 
	C2290.111572,279.381165 2291.896729,273.917267 2294.002686,268.581146 
	C2296.118164,263.222687 2298.435303,257.943970 2300.647705,252.623489 
	C2300.828613,252.187576 2300.893311,251.701569 2300.997314,251.235550 
	C2302.918945,242.620300 2306.108154,240.000946 2314.673584,240.001434 
	C2331.307617,240.002411 2347.941650,240.001724 2366.039062,240.001724 
	C2363.994385,247.193344 2362.315430,253.774185 2360.232422,260.224487 
	C2358.378906,265.963776 2356.213135,271.613373 2353.943115,277.204285 
	C2350.518555,285.638489 2346.792480,293.950317 2343.372314,302.386353 
	C2341.391602,307.271851 2339.961426,312.383392 2337.925781,317.243317 
	C2334.530029,325.350037 2330.758057,333.298615 2327.329834,341.392303 
	C2325.965820,344.613190 2325.206787,348.085114 2323.972900,351.367828 
	C2322.231201,356.001434 2320.291992,360.560547 2318.459717,365.160492 
	C2316.635254,369.740479 2314.755615,374.300873 2313.050049,378.925140 
	C2310.913330,384.718231 2309.084961,390.628448 2306.838379,396.376648 
	C2304.406738,402.598083 2301.522461,408.641815 2299.061035,414.852448 
	C2295.950439,422.701660 2293.191650,430.690918 2290.051514,438.527679 
	C2286.851562,446.513153 2283.233887,454.331696 2280.052979,462.324341 
	C2276.233154,471.921143 2272.668701,481.619812 2269.018799,491.283752 
	C2266.989746,496.656006 2265.184326,502.119904 2262.967529,507.412506 
	C2259.808594,514.954407 2256.236328,522.323486 2253.089355,529.870056 
	C2251.062256,534.730774 2249.512695,539.789124 2247.691406,544.737610 
	C2245.368408,551.048706 2240.552734,553.893433 2234.078857,553.967468 
	C2223.747803,554.085571 2213.414307,553.964661 2203.082275,554.007446 
	C2190.679199,554.058716 2181.045654,549.178894 2174.783691,538.251465 
	C2173.508057,536.025513 2172.155273,533.807739 2171.204834,531.439087 
	C2169.016357,525.985107 2167.190918,520.384033 2164.959961,514.948669 
	C2162.584229,509.160400 2159.784912,503.545746 2157.415527,497.754974 
	C2156.029541,494.366974 2155.285889,490.719421 2153.960693,487.302094 
	C2152.120605,482.557312 2149.882812,477.967010 2148.037109,473.224091 
	C2145.256836,466.078857 2142.880127,458.770966 2139.939941,451.695099 
	C2136.995605,444.608856 2133.412109,437.789642 2130.405273,430.727203 
	C2128.038330,425.166931 2126.172119,419.395355 2123.992432,413.752838 
	C2121.170898,406.448364 2118.225586,399.191589 2115.398438,391.889130 
	C2113.852539,387.895996 2112.597656,383.784424 2110.930420,379.845306 
	C2108.432861,373.944244 2105.572510,368.196594 2103.082520,362.292542 
	C2100.904297,357.127502 2099.120361,351.797058 2096.993164,346.609161 
	C2091.802490,333.950745 2086.425537,321.368103 2081.303711,308.682281 
	C2078.982178,302.932281 2077.276123,296.934021 2074.958008,291.182495 
	C2071.010254,281.387817 2066.593018,271.779358 2062.769775,261.938568 
	C2060.048584,254.934906 2057.978027,247.678406 2055.436768,239.988922 
	C2075.442871,239.988922 2094.586426,239.815994 2113.718750,240.203232 
	C2116.167480,240.252808 2119.561768,242.675751 2120.784424,244.936646 
	C2124.329346,251.491226 2127.074951,258.487946 2129.977783,265.377014 
	C2133.368896,273.425171 2136.729248,281.491516 2139.850342,289.646576 
	C2142.417725,296.355011 2144.484375,303.254211 2147.012695,309.978760 
	C2150.036621,318.021301 2153.322021,325.965302 2156.479492,333.957794 
	C2157.352051,336.166687 2158.171387,338.396515 2159.038086,341.028870 
z"/>
<path fill="#F9F9F8" opacity="1.000000" stroke="none" 
	d="
M3168.910889,550.998718 
	C3151.792969,550.998718 3135.163574,550.998718 3118.262695,550.998718 
	C3118.262695,447.396729 3118.262695,344.038727 3118.262695,240.334747 
	C3136.819580,240.334747 3155.552979,240.334747 3174.643555,240.334747 
	C3174.643555,343.538452 3174.643555,447.014160 3174.643555,550.998718 
	C3172.945557,550.998718 3171.172607,550.998718 3168.910889,550.998718 
z"/>
</svg>